<?xml version="1.0" encoding="UTF-8" standalone="no"?> <svg width="43" height="42" viewBox="0 0 43 42" fill="none" xmlns="http://www.w3.org/2000/svg">
<rect x="0.779053" width="42" height="42" rx="21" fill="black"/>
<path d="M26.7427 30.5454H16.8154C15.0972 30.5454 14.1427 30.5454 13.3791 30.1636C12.6154 29.7818 12.0427 29.2091 11.7563 28.5409C11.2791 27.6818 11.2791 26.7273 11.2791 25.0091V16.9909C11.2791 15.2727 11.2791 14.3182 11.6609 13.5545C12.0427 12.7909 12.6154 12.2182 13.2836 11.9318C14.1427 11.4545 15.0972 11.4545 16.8154 11.4545H26.7427C28.4609 11.4545 29.4154 11.4545 30.1791 11.8363C30.9427 12.2182 31.5154 12.7909 31.8018 13.4591C32.2791 14.3182 32.2791 15.2727 32.2791 16.9909V25.0091C32.2791 26.7273 32.2791 27.6818 31.8972 28.4454C31.5154 29.2091 30.9427 29.7818 30.2745 30.0682C29.4154 30.5454 28.4609 30.5454 26.7427 30.5454ZM13.1881 19.0909V25.0091C13.1881 26.4409 13.1881 27.2045 13.3791 27.5863C13.57 27.9682 13.8563 28.2545 14.2381 28.4454C14.62 28.6363 15.3836 28.6363 16.8154 28.6363H26.7427C28.1745 28.6363 28.9381 28.6363 29.32 28.4454C29.7018 28.2545 29.9881 27.9682 30.1791 27.5863C30.37 27.2045 30.37 26.4409 30.37 25.0091V19.0909H13.1881ZM13.1881 17.1818H30.37V16.9909C30.37 15.5591 30.37 14.7954 30.1791 14.4136C29.9881 14.0318 29.7018 13.7454 29.32 13.5545C28.9381 13.3636 28.1745 13.3636 26.7427 13.3636H16.8154C15.3836 13.3636 14.62 13.3636 14.2381 13.5545C13.8563 13.7454 13.57 14.0318 13.3791 14.4136C13.1881 14.7954 13.1881 15.5591 13.1881 16.9909V17.1818ZM23.6881 27.2045C23.4018 27.2045 23.2109 27.1091 23.02 26.9182C22.6381 26.5363 22.6381 25.9636 23.02 25.5818L24.7381 23.8636L23.02 22.1454C22.6381 21.7636 22.6381 21.1909 23.02 20.8091C23.4018 20.4273 23.9745 20.4273 24.3563 20.8091L26.7427 23.1954C27.1245 23.5773 27.1245 24.15 26.7427 24.5318L24.3563 26.9182C24.1654 27.1091 23.9745 27.2045 23.6881 27.2045ZM19.87 27.2045C19.5836 27.2045 19.3927 27.1091 19.2018 26.9182L16.8154 24.5318C16.4336 24.15 16.4336 23.5773 16.8154 23.1954L19.2018 20.8091C19.5836 20.4273 20.1563 20.4273 20.5381 20.8091C20.92 21.1909 20.92 21.7636 20.5381 22.1454L18.82 23.8636L20.5381 25.5818C20.92 25.9636 20.92 26.5363 20.5381 26.9182C20.3472 27.1091 20.1563 27.2045 19.87 27.2045Z" fill="white"/>
</svg>
